<svg width="136" height="147" viewBox="0 0 136 147" fill="none" xmlns="http://www.w3.org/2000/svg">
<path d="M57.8976 26.6568L33.7355 40.6068L53.4711 20.8788C53.6493 20.697 53.7894 20.4814 53.8833 20.2448C53.9772 20.0081 54.0228 19.7551 54.0177 19.5005C54.0238 19.2482 53.9773 18.9973 53.8811 18.764C53.7849 18.5306 53.6411 18.3199 53.4589 18.1452L47.9762 12.6693C47.6207 12.3064 47.1964 12.0179 46.7281 11.8206C46.2599 11.6234 45.757 11.5214 45.2489 11.5206C44.7408 11.5198 44.2377 11.6202 43.7688 11.8159C43.2999 12.0116 42.8747 12.2988 42.5179 12.6606L15.1053 40.0649C14.7429 40.4233 14.4553 40.8501 14.2591 41.3205C14.0629 41.7909 13.962 42.2956 13.9623 42.8053C13.9626 43.3149 14.0641 43.8195 14.2609 44.2897C14.4577 44.7598 14.7459 45.1862 15.1087 45.5442L20.4073 50.8467L30.9304 69.0731C31.4442 69.9632 32.2906 70.6126 33.2833 70.8786C34.276 71.1446 35.3337 71.0053 36.2237 70.4915L69.7822 51.1165C70.6722 50.6026 71.3217 49.7563 71.5877 48.7636C71.8537 47.7709 71.7144 46.7132 71.2006 45.8231L60.5443 27.366C60.2874 26.921 59.8642 26.5962 59.3679 26.4632C58.8715 26.3302 58.3427 26.3999 57.8976 26.6568ZM43.8766 24.9919L31.531 37.3212L23.327 37.3037L35.6516 24.9865L43.8766 24.9919ZM67.8447 47.7606L34.2862 67.1356L24.5987 50.3564L58.1572 30.9814L67.8447 47.7606Z" fill="#0C9F7B"/>
<path d="M92.5967 84.3468C79.567 84.3468 69.3467 90.3046 69.3467 97.9093V121.159C69.3467 128.764 79.567 134.722 92.5967 134.722C105.626 134.722 115.847 128.764 115.847 121.159V97.9093C115.847 90.3046 105.626 84.3468 92.5967 84.3468ZM111.972 109.534C111.972 111.859 110.058 114.233 106.74 116.049C102.987 118.108 97.9732 119.222 92.5967 119.222C87.2201 119.222 82.2068 118.108 78.4529 116.049C75.135 114.233 73.2217 111.859 73.2217 109.534V105.514C77.3631 109.123 84.4107 111.472 92.5967 111.472C100.783 111.472 107.83 109.123 111.972 105.514V109.534ZM106.74 127.674C102.987 129.733 97.9732 130.847 92.5967 130.847C87.2201 130.847 82.2068 129.733 78.4529 127.674C75.135 125.858 73.2217 123.484 73.2217 121.159V117.139C77.3631 120.748 84.4107 123.097 92.5967 123.097C100.783 123.097 107.83 120.748 111.972 117.139V121.159C111.972 123.484 110.058 125.858 106.74 127.674Z" fill="#662CB2"/>
</svg>